<svg xmlns="http://www.w3.org/2000/svg" width="900" height="620" viewBox="0 0 900 620">
<rect width="100%" height="100%" fill="#eef1f7"/>
<rect x="50" y="30" width="800" height="560" rx="16" fill="white" stroke="#dbe3ef"/>
<text x="80" y="65" font-family="Arial" font-size="24" font-weight="700" fill="#0d1f3c">Micro location map · Sant Adrià Flex Barcelona · Hermes</text>
<text x="80" y="88" font-family="Arial" font-size="12" fill="#667085">Esquema orientativo con POIs clave para visualizar conectividad, demanda y comps del eje Sant Adrià / Fòrum.</text>
<rect x="90" y="60" width="650" height="500" fill="#f8fafc" stroke="#d8dee9"/>
<line x1="90.0" y1="60" x2="90.0" y2="560" stroke="#e5e7eb"/>
<line x1="220.0" y1="60" x2="220.0" y2="560" stroke="#e5e7eb"/>
<line x1="350.0" y1="60" x2="350.0" y2="560" stroke="#e5e7eb"/>
<line x1="480.0" y1="60" x2="480.0" y2="560" stroke="#e5e7eb"/>
<line x1="610.0" y1="60" x2="610.0" y2="560" stroke="#e5e7eb"/>
<line x1="740.0" y1="60" x2="740.0" y2="560" stroke="#e5e7eb"/>
<line x1="90" y1="60.0" x2="740" y2="60.0" stroke="#e5e7eb"/>
<line x1="90" y1="160.0" x2="740" y2="160.0" stroke="#e5e7eb"/>
<line x1="90" y1="260.0" x2="740" y2="260.0" stroke="#e5e7eb"/>
<line x1="90" y1="360.0" x2="740" y2="360.0" stroke="#e5e7eb"/>
<line x1="90" y1="460.0" x2="740" y2="460.0" stroke="#e5e7eb"/>
<line x1="90" y1="560.0" x2="740" y2="560.0" stroke="#e5e7eb"/>
<line x1="390.0" y1="155.5" x2="497.9" y2="226.7" stroke="#cbd5e1" stroke-dasharray="4 4"/>
<line x1="390.0" y1="155.5" x2="427.0" y2="117.7" stroke="#cbd5e1" stroke-dasharray="4 4"/>
<line x1="390.0" y1="155.5" x2="253.4" y2="242.2" stroke="#cbd5e1" stroke-dasharray="4 4"/>
<line x1="390.0" y1="155.5" x2="165.0" y2="135.8" stroke="#cbd5e1" stroke-dasharray="4 4"/>
<line x1="390.0" y1="155.5" x2="665.0" y2="393.3" stroke="#cbd5e1" stroke-dasharray="4 4"/>
<line x1="390.0" y1="155.5" x2="407.2" y2="472.8" stroke="#cbd5e1" stroke-dasharray="4 4"/>
<line x1="390.0" y1="155.5" x2="364.3" y2="502.3" stroke="#cbd5e1" stroke-dasharray="4 4"/>
<circle cx="390.0" cy="155.5" r="8" fill="#d97706" stroke="white" stroke-width="2"/>
<circle cx="497.9" cy="226.7" r="6" fill="#2563eb" stroke="white" stroke-width="2"/>
<circle cx="427.0" cy="117.7" r="6" fill="#2563eb" stroke="white" stroke-width="2"/>
<circle cx="253.4" cy="242.2" r="6" fill="#059669" stroke="white" stroke-width="2"/>
<circle cx="165.0" cy="135.8" r="6" fill="#059669" stroke="white" stroke-width="2"/>
<circle cx="665.0" cy="393.3" r="6" fill="#dc2626" stroke="white" stroke-width="2"/>
<circle cx="407.2" cy="472.8" r="6" fill="#dc2626" stroke="white" stroke-width="2"/>
<circle cx="364.3" cy="502.3" r="6" fill="#dc2626" stroke="white" stroke-width="2"/>
<text x="402.0" y="143.5" font-family="Arial" font-size="12" font-weight="700" fill="#111827">Activo</text>
<text x="509.9" y="226.7" font-family="Arial" font-size="12" font-weight="700" fill="#111827">Tram La Catalana</text>
<text x="439.0" y="113.7" font-family="Arial" font-size="12" font-weight="700" fill="#111827">Bus La Rambleta</text>
<text x="265.4" y="258.2" font-family="Arial" font-size="12" font-weight="700" fill="#111827">CEM Besòs</text>
<text x="-45.0" y="125.8" font-family="Arial" font-size="12" font-weight="700" fill="#111827">Ciutat Esportiva Dani Jarque</text>
<text x="677.0" y="387.3" font-family="Arial" font-size="12" font-weight="700" fill="#111827">SLS Barcelona</text>
<text x="419.2" y="472.8" font-family="Arial" font-size="12" font-weight="700" fill="#111827">Hotel SB Diagonal Zero</text>
<text x="376.3" y="518.3" font-family="Arial" font-size="12" font-weight="700" fill="#111827">Barcelona Princess</text>
<text x="760" y="110" font-family="Arial" font-size="14" font-weight="700" fill="#0d1f3c">Leyenda</text>
<circle cx="760" cy="130" r="6" fill="#d97706"/>
<text x="774" y="134" font-family="Arial" font-size="12" fill="#334155">Activo</text>
<circle cx="760" cy="156" r="6" fill="#2563eb"/>
<text x="774" y="160" font-family="Arial" font-size="12" fill="#334155">Transporte</text>
<circle cx="760" cy="182" r="6" fill="#059669"/>
<text x="774" y="186" font-family="Arial" font-size="12" fill="#334155">Deporte / servicios</text>
<circle cx="760" cy="208" r="6" fill="#dc2626"/>
<text x="774" y="212" font-family="Arial" font-size="12" fill="#334155">Hoteles / comps</text>
<rect x="745" y="260" width="90" height="140" rx="10" fill="#f8fafc" stroke="#e5e7eb"/>
<text x="758" y="285" font-family="Arial" font-size="12" fill="#334155">• Tram y bus</text>
<text x="758" y="303" font-family="Arial" font-size="12" fill="#334155">muy cerca</text>
<text x="758" y="321" font-family="Arial" font-size="12" fill="#334155">• Nodo deportivo</text>
<text x="758" y="339" font-family="Arial" font-size="12" fill="#334155">y servicios</text>
<text x="758" y="357" font-family="Arial" font-size="12" fill="#334155">• Clúster hotelero</text>
<text x="758" y="375" font-family="Arial" font-size="12" fill="#334155">hacia Fòrum</text>
<text x="690" y="585" font-family="Arial" font-size="12" fill="#667085">Este → Fòrum / Diagonal Mar</text>
<text x="90" y="585" font-family="Arial" font-size="12" fill="#667085">Oeste → Sant Adrià / Besòs</text>
</svg>